{"title":"B-nario - 1996 La musica che piace a noi","uid":5152106,"size":75373511,"categoryP":"audio","categoryS":"music","magnet":"?xt=urn:btih:ddd2f73870cc13e27610257cf72f2cff91467fd8&amp;dn=B-nario+-+1996+La+musica+che+piace+a+noi&amp;tr=udp%3A%2F%2Ftracker.openbittorrent.com%3A80&amp;tr=udp%3A%2F%2Fopen.demonii.com%3A1337&amp;tr=udp%3A%2F%2Ftracker.coppersurfer.tk%3A6969&amp;tr=udp%3A%2F%2Fexodus.desync.com%3A6969","seeders":0,"leechers":1,"uploader":null,"files":13,"time":1257619353,"description":"I had to download 10 - Il nostro viaggio.mp3 separetely from the rest so it's only 128 kbps, the rest of the album is 192 kbps\n\n\nGeneral\nComplete name                    : 01 - Se no che vita ÃƒÂ¨.mp3\nFormat                           : MPEG Audio\nFile size                        : 5.33 MiB\nDuration                         : 3mn 53s\nOverall bit rate                 : 192 Kbps\nAlbum                            : La musica che piace a noi\nTrack name                       : Se no che vita ÃƒÂ¨\nTrack name/Position              : 1\nPerformer                        : B-nario\nRecorded date                    : 1996\nWriting library                  : LAME3.96.1\n\nAudio\nFormat                           : MPEG Audio\nFormat version                   : Version 1\nFormat profile                   : Layer 3\nDuration                         : 3mn 53s\nBit rate mode                    : Constant\nBit rate                         : 192 Kbps\nChannel(s)                       : 2 channels\nSampling rate                    : 44.1 KHz\nResolution                       : 16 bits\nStream size                      : 5.33 MiB (100%)\nWriting library                  : LAME3.96.1\n\n\n\n\n\n\n\n\n\n\n\n\n\n\n\nGeneral\nComplete name                    : 10 - Il nostro viaggio.mp3\nFormat                           : MPEG Audio\nFile size                        : 4.18 MiB\nDuration                         : 4mn 33s\nOverall bit rate                 : 128 Kbps\nTrack name                       : Il Nostro Viaggio\nPerformer                        : Binario\nGenre                            : Other\n\nAudio\nFormat                           : MPEG Audio\nFormat version                   : Version 1\nFormat profile                   : Layer 3\nDuration                         : 4mn 33s\nBit rate mode                    : Constant\nBit rate                         : 128 Kbps\nChannel(s)                       : 2 channels\nSampling rate                    : 44.1 KHz\nResolution                       : 16 bits\nStream size                      : 4.18 MiB (100%)\n\n\n\n","torrent":{"xt":"urn:btih:ddd2f73870cc13e27610257cf72f2cff91467fd8","amp;dn":"B-nario+-+1996+La+musica+che+piace+a+noi","amp;tr":["udp%3A%2F%2Ftracker.openbittorrent.com%3A80","udp%3A%2F%2Fopen.demonii.com%3A1337","udp%3A%2F%2Ftracker.coppersurfer.tk%3A6969","udp%3A%2F%2Fexodus.desync.com%3A6969"],"infoHash":"ddd2f73870cc13e27610257cf72f2cff91467fd8","infoHashBuffer":{"type":"Buffer","data":[221,210,247,56,112,204,19,226,118,16,37,124,247,47,44,255,145,70,127,216]},"announce":[],"urlList":[]}}